<?xml version="1.0" standalone="no"?>
<!DOCTYPE svg PUBLIC "-//W3C//DTD SVG 20010904//EN"
 "http://www.w3.org/TR/2001/REC-SVG-20010904/DTD/svg10.dtd">
<svg version="1.0" xmlns="http://www.w3.org/2000/svg"
 width="860.000000pt" height="860.000000pt" viewBox="0 0 860.000000 860.000000"
 preserveAspectRatio="xMidYMid meet">
<metadata>
Created by potrace 1.16, written by Peter Selinger 2001-2019
</metadata>
<g transform="translate(0.000000,860.000000) scale(0.100000,-0.100000)"
fill="#000000" stroke="none">
<path d="M4837 8235 c-10 -14 -26 -25 -37 -25 -10 0 -22 -9 -25 -21 -9 -27
-25 -46 -115 -138 -70 -71 -90 -101 -119 -174 -13 -32 -31 -27 -31 7 0 13 -16
46 -35 72 -19 27 -44 62 -54 78 -18 26 -20 26 -25 8 -4 -10 3 -40 14 -66 29
-68 38 -225 16 -286 -9 -25 -16 -53 -16 -62 0 -10 -4 -18 -10 -18 -9 0 -20 35
-35 106 -9 44 -54 91 -95 100 l-34 6 31 -31 c17 -17 41 -52 54 -78 13 -27 44
-79 70 -118 47 -72 72 -116 89 -159 7 -20 6 -23 -9 -19 -22 6 -117 82 -135
109 -7 10 -24 47 -36 82 -12 34 -24 62 -26 62 -2 0 -2 -45 0 -101 l4 -101 -61
59 c-34 32 -61 61 -59 65 1 4 -7 6 -18 5 -28 -2 -25 -10 13 -31 29 -17 86 -71
144 -136 12 -14 32 -34 43 -45 18 -17 19 -21 6 -23 -16 -3 -23 -22 -8 -22 4 0
13 -13 20 -29 14 -32 44 -65 88 -98 l29 -22 -23 -7 c-41 -12 -3 -24 79 -24 42
0 78 -3 82 -6 5 -6 -3 -32 -26 -82 -11 -24 5 -114 26 -139 5 -7 5 -13 0 -13
-5 0 -9 -33 -9 -72 0 -80 -9 -128 -24 -128 -5 0 -28 20 -51 44 -27 28 -47 42
-57 38 -11 -4 -13 -2 -7 8 6 10 -9 29 -51 67 l-59 53 -3 -110 -3 -111 77 -85
c42 -46 83 -84 91 -84 8 0 21 -7 30 -15 11 -12 19 -13 28 -5 10 8 15 8 20 0 4
-7 28 -21 53 -31 26 -11 50 -25 53 -31 4 -7 31 -2 80 13 62 20 82 32 131 81
32 32 58 62 58 68 0 5 30 41 66 80 56 59 85 96 127 167 9 14 -69 -23 -102 -49
-15 -11 -32 -16 -44 -12 -12 4 -17 2 -13 -4 9 -14 -19 -23 -33 -9 -8 8 -11 7
-11 -6 0 -18 -25 -23 -35 -7 -4 6 -11 8 -16 4 -5 -3 -7 -10 -4 -15 4 -5 -6 -9
-22 -9 -21 0 -24 3 -13 10 12 8 12 10 -3 16 -23 9 -115 -47 -189 -115 -62 -57
-79 -61 -54 -13 8 16 27 60 41 98 19 51 40 83 80 124 29 30 79 98 109 150 31
52 59 101 63 109 7 10 26 4 90 -30 45 -24 86 -40 90 -35 4 4 1 11 -7 16 -11 7
-8 11 14 19 15 6 46 24 69 40 59 40 154 82 207 91 25 4 35 8 23 9 -26 1 -133
43 -133 52 0 3 26 19 57 35 67 33 163 125 179 171 11 29 7 27 -43 -24 -59 -61
-84 -65 -37 -5 51 63 49 69 -7 17 -29 -27 -57 -55 -61 -62 -12 -17 -129 -95
-135 -90 -2 3 7 23 20 44 14 21 33 66 43 98 22 75 27 81 78 104 22 10 64 42
91 72 l50 53 -52 -45 c-55 -47 -120 -86 -128 -77 -3 3 -2 16 3 29 6 16 5 41
-4 74 -8 28 -19 100 -24 160 -5 61 -15 137 -23 170 -13 57 -15 60 -53 72 -21
6 -50 12 -64 12 -13 1 -33 12 -45 27 -16 21 -33 27 -89 34 -62 8 -73 13 -110
49 -23 23 -46 41 -51 41 -6 0 -18 -12 -28 -25z m108 -587 c39 -123 25 -178
-57 -216 -83 -39 -123 -36 -142 12 -5 16 7 34 58 85 64 65 96 123 96 177 0 48
20 22 45 -58z"/>
<path d="M6558 7953 c-105 -79 -241 -210 -232 -225 3 -4 -2 -31 -11 -60 -19
-66 -19 -121 1 -210 20 -88 16 -231 -8 -254 -14 -14 -17 -14 -34 4 -31 32 -61
44 -83 32 -14 -7 -22 -7 -26 0 -4 6 -14 10 -23 9 -10 -1 -22 -1 -28 0 -16 1
-54 93 -54 129 0 35 23 93 53 133 31 43 45 37 39 -16 -5 -47 5 -57 28 -30 7 8
18 15 25 15 24 0 44 37 73 140 17 58 29 106 28 108 -2 1 -25 -15 -52 -36 -27
-21 -71 -53 -99 -72 -27 -18 -78 -63 -113 -98 -34 -36 -65 -62 -69 -59 -3 4 5
41 17 84 31 108 36 152 10 83 -12 -30 -25 -64 -30 -75 -25 -62 -41 -304 -21
-330 14 -17 23 -85 12 -85 -13 0 -99 106 -111 136 -5 14 -29 28 -72 42 -70 24
-134 29 -122 11 4 -7 21 -9 40 -6 19 3 34 2 34 -4 0 -5 8 -9 18 -9 27 0 88
-68 112 -125 12 -27 25 -59 30 -70 4 -11 11 -28 14 -37 4 -14 17 -18 60 -18
84 0 87 -3 66 -58 -23 -60 -33 -293 -12 -285 15 6 15 -14 1 -58 -15 -44 -14
-43 -40 -28 -12 6 -39 13 -59 14 -20 2 -51 12 -70 24 -19 11 -50 28 -67 37
-18 9 -33 21 -33 27 0 5 -8 3 -17 -6 -10 -8 -44 -20 -75 -26 -69 -12 -105 -30
-178 -87 -76 -59 -98 -80 -154 -149 -71 -88 -90 -130 -135 -300 -14 -52 -24
-3 -16 77 8 82 24 120 94 211 26 36 63 87 82 113 l33 49 -40 -35 c-23 -19 -61
-51 -85 -71 -57 -46 -119 -169 -119 -235 0 -48 -18 -30 -44 44 -16 42 -31 95
-36 117 -7 40 -8 39 -9 -16 0 -31 5 -74 13 -95 18 -53 40 -174 32 -181 -3 -3
-15 2 -25 11 -19 17 -19 16 -10 -26 13 -54 42 -98 85 -126 42 -27 45 -47 7
-37 -65 17 -93 23 -93 18 0 -3 28 -31 62 -63 78 -72 75 -90 -12 -90 -54 0 -69
5 -162 57 -57 31 -116 67 -131 80 -16 13 -41 23 -55 23 -25 0 -266 100 -258
107 5 5 148 -34 221 -61 39 -15 74 -28 79 -29 4 -1 10 15 12 37 3 21 11 54 19
73 13 30 13 37 -1 58 -9 13 -24 27 -35 30 -10 4 -21 16 -23 28 -3 12 -7 34
-10 48 -8 38 -42 44 -52 10 -4 -14 -8 -34 -9 -44 -1 -10 -4 -19 -6 -20 -2 -2
-19 -15 -37 -30 -51 -41 -104 -38 -148 9 -19 19 -34 41 -34 47 1 12 30 -21 30
-34 0 -12 89 -19 115 -9 34 13 31 27 -10 47 -35 17 -46 33 -22 33 6 -1 23 -7
37 -15 14 -8 33 -14 43 -15 15 0 12 6 -12 26 -34 28 -39 49 -16 58 9 3 15 18
15 40 0 38 -36 76 -72 76 -16 0 -17 -3 -8 -20 13 -24 12 -24 -31 -6 -19 7 -43
16 -54 21 l-20 7 20 8 c18 7 17 9 -10 19 -16 6 -37 16 -45 21 -8 6 -30 17 -47
25 -18 9 -33 21 -33 28 0 8 -22 13 -65 15 -49 2 -65 -1 -65 -11 0 -7 13 -49
29 -93 37 -102 68 -254 75 -374 6 -112 -10 -103 -25 13 -19 140 -53 291 -95
419 -21 63 -33 84 -67 113 -63 54 -68 48 -46 -51 19 -86 45 -148 80 -193 30
-38 22 -48 -12 -15 -41 38 -76 119 -98 224 l-18 85 -47 17 c-69 24 -92 43
-100 79 -3 18 -4 35 -1 37 3 3 36 -8 73 -25 122 -56 110 -56 174 0 75 65 113
140 105 206 -4 25 -11 66 -17 91 -30 118 -22 170 32 215 36 30 22 34 -16 4
-34 -27 -54 -19 -102 37 -108 127 -254 252 -314 267 -14 4 -46 24 -72 45 -47
39 -266 158 -275 149 -2 -3 0 -14 5 -24 5 -10 17 -52 27 -93 19 -80 47 -142
103 -230 19 -30 36 -67 39 -83 4 -26 3 -27 -16 -18 -36 20 -42 12 -21 -30 12
-23 19 -43 17 -46 -10 -9 -86 69 -124 125 l-38 57 -3 -38 c-2 -21 1 -44 6 -50
6 -7 15 -30 21 -53 7 -27 32 -64 72 -108 33 -36 58 -66 54 -66 -3 0 -27 16
-52 35 -25 19 -50 35 -54 35 -18 0 -8 -68 17 -118 14 -29 44 -68 67 -88 47
-40 150 -95 214 -114 l43 -13 -18 -27 c-18 -29 -120 -120 -134 -120 -4 0 -14
-13 -22 -29 -9 -16 -30 -37 -49 -48 -23 -14 -45 -43 -71 -94 -55 -108 -138
-229 -157 -229 -9 0 -43 17 -75 39 -76 50 -294 125 -340 116 -18 -3 -38 -13
-45 -22 -12 -14 -11 -18 5 -27 24 -13 50 -40 94 -95 18 -23 58 -57 88 -76 52
-34 67 -54 42 -56 -7 0 -57 0 -110 1 -91 1 -118 -6 -88 -25 6 -4 22 -25 36
-47 23 -36 24 -45 17 -106 -7 -58 -11 -67 -30 -70 -27 -4 -86 25 -78 38 4 6
-1 13 -9 16 -8 3 -18 16 -22 27 -4 12 -18 35 -31 51 -17 20 -21 32 -14 39 20
20 13 41 -26 80 -25 25 -41 35 -59 39 -10 2 -19 11 -19 20 0 10 -8 25 -17 34
-15 15 -15 18 8 43 l24 26 -27 12 c-16 7 -43 12 -62 13 -28 0 -33 3 -28 20 4
17 0 20 -31 21 -73 2 -107 -3 -146 -23 -21 -11 -62 -27 -90 -35 -28 -8 -68
-24 -89 -34 -21 -11 -43 -17 -49 -13 -7 5 -8 3 -3 -6 6 -9 2 -10 -15 -5 -14 4
-53 -2 -101 -16 -89 -27 -99 -40 -99 -121 0 -91 40 -148 157 -221 26 -17 43
-35 43 -46 0 -27 67 -80 110 -87 63 -10 68 -14 37 -30 -25 -14 -36 -14 -95 1
-100 24 -102 24 -102 15 0 -5 5 -12 10 -15 19 -12 91 -115 109 -158 10 -23 38
-61 62 -84 55 -55 87 -57 140 -8 41 36 67 43 87 23 7 -7 27 -17 44 -22 41 -14
98 -97 98 -142 0 -39 26 -103 51 -127 26 -24 24 -34 -15 -100 -19 -31 -37 -74
-41 -97 -8 -48 -22 -51 -37 -10 -5 17 -18 35 -27 40 -9 5 -26 27 -37 49 -10
23 -22 41 -26 41 -4 0 -28 20 -54 45 -29 28 -53 44 -63 41 -10 -3 -25 8 -43
34 -22 31 -34 40 -57 40 -17 0 -32 4 -35 9 -15 23 -228 66 -255 52 -10 -6 -29
-3 -51 8 -31 14 -37 24 -53 81 -13 48 -15 71 -7 88 13 29 13 32 -3 32 -24 0
-57 76 -68 156 -22 161 10 372 80 518 46 96 56 109 186 246 167 175 183 185
280 167 155 -28 307 85 336 248 21 121 3 239 -56 369 -39 87 -55 135 -55 168
l0 32 -16 -24 c-10 -14 -31 -41 -49 -60 -32 -34 -51 -80 -35 -80 5 0 12 5 15
10 3 6 13 10 21 10 10 0 14 -13 14 -47 0 -34 3 -44 10 -33 14 23 19 10 30 -91
9 -85 8 -99 -9 -148 -11 -29 -22 -55 -23 -56 -2 -1 -19 -10 -38 -20 -33 -17
-60 -45 -88 -89 -12 -20 -13 -20 -8 -1 3 11 -1 28 -8 37 -16 21 -62 33 -70 19
-14 -22 -33 -10 -46 28 -7 23 -11 70 -9 118 4 86 2 86 -43 17 -37 -57 -59
-128 -65 -205 -5 -56 -2 -73 22 -122 14 -31 31 -57 36 -57 20 0 7 -30 -22 -52
-106 -79 -243 -230 -294 -323 -15 -27 -32 -56 -37 -62 -6 -7 -22 -48 -37 -91
-31 -89 -39 -104 -50 -97 -8 4 -20 71 -27 140 -1 17 -6 55 -9 85 -4 30 -2 80
3 110 12 63 7 78 -9 32 -12 -36 -23 -40 -39 -14 -10 15 -11 15 -4 -3 5 -11 7
-47 6 -80 -1 -34 7 -113 18 -175 25 -147 25 -143 -5 -138 -14 3 -25 5 -25 4 0
-1 9 -19 20 -41 22 -43 25 -70 10 -80 -6 -4 -4 -19 5 -42 8 -19 15 -47 15 -61
0 -55 30 -185 60 -257 17 -41 29 -81 35 -115 6 -32 6 -33 -7 -15 -8 11 -30 47
-48 79 -19 34 -75 101 -131 157 -53 53 -100 108 -103 121 -4 12 -12 41 -18 63
-17 62 -57 145 -94 196 -44 61 -123 126 -133 110 -5 -8 -20 -2 -50 19 -23 17
-48 29 -54 27 -7 -2 -21 0 -32 6 -29 15 -234 10 -259 -7 -12 -7 -37 -16 -56
-19 -19 -3 -53 -10 -75 -15 -48 -12 -101 -20 -206 -28 -80 -7 -90 -12 -65 -33
8 -6 16 -26 19 -44 5 -35 72 -233 108 -318 12 -30 31 -64 42 -76 11 -13 16
-23 10 -23 -6 0 6 -18 26 -40 20 -22 42 -40 49 -40 9 0 11 -7 7 -19 -3 -12 -1
-19 7 -18 25 1 99 -16 104 -24 3 -5 -5 -9 -18 -10 -21 0 -20 -1 7 -14 17 -7
38 -16 49 -19 13 -5 16 -10 8 -19 -9 -10 10 -15 87 -24 53 -7 110 -18 127 -24
16 -7 34 -11 39 -9 6 2 36 4 68 6 145 4 317 164 321 295 0 21 4 39 7 39 4 0
42 -38 85 -83 71 -75 174 -230 161 -243 -6 -6 -235 12 -263 21 -18 6 -20 3
-16 -24 2 -18 9 -28 16 -25 35 13 156 -124 156 -177 0 -10 10 -25 22 -33 23
-17 23 -18 -6 -33 -15 -8 1 -12 69 -18 56 -4 83 -10 74 -16 -11 -7 -12 -12 -1
-29 15 -25 15 -25 -4 -44 -19 -20 -133 -22 -155 -3 -21 17 -69 84 -69 95 0 5
-7 15 -15 22 -8 7 -15 27 -15 44 0 21 -8 40 -24 55 -19 17 -22 30 -19 60 3 27
0 41 -13 52 -16 13 -17 11 -10 -31 12 -68 15 -230 5 -230 -5 0 -9 -9 -9 -20 0
-11 5 -20 10 -20 6 0 10 -18 10 -39 0 -22 5 -43 10 -46 8 -5 7 -11 -1 -21 -16
-19 6 -70 45 -106 30 -27 30 -28 7 -28 -28 0 -25 -8 23 -84 27 -42 46 -60 92
-82 l57 -28 -31 -14 c-22 -11 -30 -21 -29 -38 3 -31 88 -128 137 -155 29 -17
37 -26 29 -35 -7 -9 -1 -19 24 -38 19 -14 39 -26 45 -26 7 0 12 -4 12 -10 0
-5 -4 -10 -10 -10 -19 0 -10 -28 10 -33 26 -7 26 -37 0 -37 -13 0 -18 -5 -14
-15 11 -27 100 32 178 118 54 60 79 80 110 88 57 16 134 56 179 95 59 49 146
63 265 39 113 -22 152 -43 152 -85 l0 -31 43 26 c24 14 55 25 70 25 30 0 40
11 31 35 -4 10 -12 14 -23 9 -9 -4 -30 -9 -48 -12 l-32 -4 39 78 c22 44 40 87
40 96 0 40 18 23 24 -24 l7 -51 30 36 c16 19 60 58 98 85 65 48 69 49 84 32 8
-10 12 -21 9 -25 -4 -4 -9 -48 -12 -99 -5 -82 -9 -97 -36 -139 l-31 -47 -6 46
c-2 25 -8 48 -11 52 -4 3 -21 -1 -39 -10 -18 -9 -41 -19 -52 -23 -18 -6 -15
-11 29 -49 56 -49 64 -79 65 -226 1 -96 -16 -181 -54 -265 -15 -35 -23 -66
-19 -80 4 -17 -10 -54 -49 -129 -70 -132 -103 -181 -182 -265 -39 -40 -77 -94
-97 -136 -35 -72 -68 -98 -68 -53 0 52 58 146 150 242 100 106 115 132 126
225 6 58 9 64 43 86 l37 23 -12 150 c-14 174 -30 260 -52 284 -14 17 -17 17
-51 -4 -20 -12 -37 -25 -39 -29 -9 -22 -51 -59 -76 -69 -38 -14 -48 -4 -92 89
-42 89 -79 141 -100 141 -13 0 -13 -3 0 -22 9 -12 16 -33 16 -46 0 -22 -1 -22
-17 -7 -27 27 -36 -3 -24 -86 11 -84 0 -172 -31 -233 -29 -57 -88 -131 -120
-150 -15 -9 -55 -50 -88 -91 -34 -41 -82 -89 -106 -106 -25 -17 -62 -45 -82
-63 l-36 -31 23 34 c13 18 45 48 71 67 57 41 104 97 150 178 18 32 54 87 80
121 62 81 86 128 99 200 13 71 13 99 1 68 -5 -13 -14 -23 -20 -23 -14 0 -13 4
16 62 25 50 26 52 8 66 -33 24 -222 -7 -258 -44 -10 -9 -16 -33 -16 -59 0 -66
40 -95 86 -60 25 19 85 19 110 -1 18 -14 17 -15 -21 -11 -23 2 -52 -2 -69 -10
-24 -12 -52 -19 -90 -22 -4 -1 -6 -10 -3 -22 4 -16 2 -19 -11 -14 -44 17 -84
16 -149 -5 -95 -31 -140 -61 -148 -102 -4 -18 -19 -52 -32 -76 -21 -35 -24
-50 -19 -86 6 -40 12 -47 49 -65 l42 -21 -48 0 c-26 0 -63 6 -82 14 -30 13
-35 13 -46 -1 -10 -11 -10 -19 -1 -33 9 -14 8 -19 -2 -23 -32 -12 -37 42 -6
61 15 9 20 23 20 57 0 53 -17 53 -51 -1 -28 -46 -32 -163 -6 -192 21 -23 22
-32 3 -32 -19 0 -14 -35 12 -86 24 -46 35 -57 77 -72 28 -10 27 -10 -23 -11
-86 -1 -152 39 -167 102 -6 24 -4 28 25 38 l32 12 -26 21 c-36 29 -46 65 -42
143 5 78 11 96 60 177 20 33 33 62 30 65 -3 3 -9 -1 -14 -9 -5 -8 -21 -14 -37
-15 -23 0 -28 -4 -28 -25 0 -17 -17 -42 -50 -75 -27 -27 -50 -52 -51 -55 -3
-24 -38 -74 -81 -117 -49 -48 -65 -84 -44 -97 5 -3 8 -17 9 -31 0 -45 50 -144
66 -128 7 7 8 4 11 -55 4 -55 26 -88 65 -95 17 -4 79 -10 138 -13 104 -6 129
-3 227 31 30 10 -20 -30 -70 -57 -57 -30 -254 -31 -337 -2 -62 22 -68 19 -68
-30 0 -32 27 -53 112 -86 78 -31 152 -38 206 -19 20 7 75 59 152 145 164 181
228 229 377 283 54 20 67 30 93 72 18 26 29 53 25 58 -25 42 259 384 414 499
34 26 41 20 13 -12 -10 -12 -47 -68 -82 -126 -76 -125 -120 -187 -214 -298
-39 -46 -84 -99 -99 -118 l-28 -33 50 15 c31 9 80 14 124 12 l72 -3 -165 -54
c-316 -102 -344 -115 -437 -204 -45 -43 -110 -115 -145 -158 -57 -73 -66 -81
-118 -95 -30 -8 -75 -22 -100 -31 -81 -27 -111 -27 -150 1 -19 14 -53 37 -75
52 -128 85 -145 138 -81 248 33 56 33 66 -2 66 -26 0 -29 4 -45 78 -10 42 -17
90 -17 105 0 34 33 101 71 145 16 18 31 44 34 57 3 14 7 36 10 49 7 35 108
114 171 132 30 8 54 19 54 22 0 7 -19 16 -90 44 -42 17 -216 23 -225 8 -4 -7
-12 -7 -25 0 -10 5 -58 10 -107 10 -48 0 -105 5 -126 11 -29 8 -45 7 -67 -3
l-29 -13 23 -25 c26 -26 86 -139 86 -159 0 -7 5 -22 12 -34 7 -12 13 -38 15
-57 1 -19 8 -45 14 -57 15 -29 5 -40 -18 -22 -10 7 -6 0 10 -17 15 -17 27 -40
27 -52 0 -13 6 -22 15 -22 8 0 15 -4 15 -10 0 -5 -8 -10 -17 -10 -15 0 -13 -4
8 -23 15 -12 36 -38 48 -59 12 -20 40 -52 64 -72 86 -75 90 -82 62 -106 -12
-10 -28 0 -92 57 -128 114 -193 176 -193 185 0 4 10 9 23 10 12 1 -3 4 -33 7
l-54 6 4 50 c10 104 5 199 -12 235 -20 43 -204 224 -237 235 -14 4 -41 22 -60
40 -47 42 -224 185 -231 185 -10 0 0 -355 11 -400 16 -64 48 -151 65 -178 25
-38 11 -45 -31 -17 l-40 27 30 -31 c18 -20 37 -30 47 -28 20 6 27 -1 63 -68
15 -27 37 -61 49 -73 24 -27 87 -62 111 -62 47 0 -22 -57 -108 -89 -110 -40
-193 -24 -275 52 -31 29 -52 45 -47 37 66 -116 188 -164 317 -126 68 20 69 20
62 1 -8 -19 3 -65 15 -65 5 0 12 11 15 24 6 26 69 86 90 86 8 0 17 -7 20 -16
5 -13 18 -4 60 40 30 31 61 56 69 56 8 0 31 -12 52 -26 29 -19 40 -22 46 -13
8 13 23 1 157 -123 28 -27 52 -51 52 -52 0 -6 -64 -30 -185 -70 -60 -21 -128
-46 -151 -56 -43 -19 -110 -36 -131 -32 -18 4 -16 -13 3 -29 9 -7 34 -40 57
-73 22 -33 69 -93 104 -133 l63 -73 -70 -35 -70 -35 53 -53 c60 -59 121 -139
161 -212 46 -83 82 -113 150 -127 49 -11 63 -18 75 -41 25 -45 43 -63 88 -85
23 -12 44 -25 46 -30 3 -4 -18 -34 -48 -67 l-52 -60 -37 20 c-21 11 -69 46
-108 77 -54 44 -76 56 -93 52 -12 -3 -47 -1 -77 5 -62 11 -117 2 -187 -32 -34
-17 -56 -40 -104 -112 -62 -92 -147 -241 -147 -258 0 -5 7 -4 15 3 19 16 125
9 262 -15 97 -18 104 -18 157 -2 42 14 65 30 104 72 64 70 86 132 76 212 -6
56 -6 57 12 42 11 -9 40 -30 67 -47 l47 -30 -56 -68 c-30 -38 -51 -70 -45 -72
5 -2 27 1 48 7 58 16 60 -2 6 -44 -26 -20 -56 -50 -67 -66 -17 -28 -17 -31 -2
-42 17 -13 13 -34 -20 -115 -17 -41 -17 -43 1 -36 8 4 15 2 15 -2 0 -12 -30
-105 -41 -126 -13 -26 -11 -32 5 -19 20 17 28 -1 20 -44 -4 -21 -2 -35 4 -35
6 0 9 -22 7 -52 -6 -90 6 -210 20 -204 9 3 14 -15 19 -57 3 -33 10 -63 14 -66
20 -13 60 -111 55 -133 -3 -17 -2 -19 5 -9 14 19 29 6 38 -32 7 -32 19 -63 55
-143 11 -23 19 -63 19 -90 1 -41 2 -46 12 -29 16 30 161 175 174 175 7 0 14 6
17 13 2 6 8 9 12 5 4 -4 4 -13 -1 -21 -5 -7 -1 -4 9 7 10 11 31 19 47 19 17 0
28 3 25 6 -3 2 38 27 92 53 53 27 102 53 108 58 7 6 15 7 19 3 3 -4 19 5 34
20 29 28 79 52 101 48 8 -1 33 18 57 44 l42 47 -5 -44 c-3 -24 -3 -40 1 -36
11 9 44 67 64 110 9 21 19 38 22 38 15 0 28 -57 23 -104 -6 -60 20 -161 43
-170 8 -3 14 -19 14 -36 0 -17 4 -29 9 -26 5 4 19 -10 31 -29 22 -35 86 -92
127 -114 12 -6 72 -26 135 -45 l113 -35 47 47 c58 56 103 145 119 236 27 155
-24 252 -150 291 -60 18 -87 42 -78 68 2 6 -3 18 -10 25 -10 10 -11 18 -3 27
8 9 4 17 -15 29 -34 22 -33 59 1 75 23 10 35 8 100 -24 69 -32 97 -65 58 -65
-8 0 -13 -4 -10 -9 3 -5 20 -8 38 -7 18 2 45 -4 61 -11 21 -11 26 -18 21 -37
-5 -19 -1 -24 23 -29 39 -8 83 -44 76 -62 -3 -10 1 -15 15 -15 12 0 33 -12 48
-27 l26 -26 -23 -13 c-13 -7 -32 -13 -42 -14 -10 0 -15 -4 -12 -10 3 -5 30
-10 58 -10 83 0 250 -37 314 -69 32 -16 74 -32 93 -36 170 -33 335 -113 422
-202 44 -47 58 -67 50 -75 -8 -8 -15 -8 -24 -1 -30 24 -150 63 -191 63 -48 0
-119 -26 -168 -61 -17 -12 -46 -53 -65 -92 -40 -80 -32 -81 11 -2 37 68 41 73
99 103 43 22 64 27 132 27 71 0 85 -3 120 -27 21 -15 64 -31 95 -37 32 -5 79
-23 105 -40 96 -58 161 -93 319 -171 189 -92 222 -107 255 -113 14 -2 19 -2
13 0 -7 3 -13 9 -13 14 0 5 -3 8 -7 7 -5 -1 -26 9 -48 23 -22 14 -110 67 -195
119 -196 117 -275 180 -226 180 7 0 42 -13 77 -29 110 -50 276 -101 328 -101
38 0 70 -11 147 -49 94 -47 194 -92 194 -88 0 1 -41 29 -90 62 -49 33 -89 65
-87 70 2 6 29 12 60 15 67 6 87 20 28 20 -73 0 -148 27 -176 64 -25 33 -30 57
-27 138 2 38 8 54 33 79 37 38 30 53 -9 16 -16 -15 -33 -27 -40 -27 -7 0 -9
-10 -6 -30 4 -16 4 -36 1 -45 -6 -13 -11 -12 -42 5 -50 28 -57 25 -13 -5 40
-27 53 -53 43 -85 -4 -14 -2 -20 8 -20 15 0 32 -29 22 -38 -5 -5 -52 9 -230
67 -139 45 -315 163 -408 272 -20 24 -47 54 -59 67 -31 31 -47 62 -48 88 0 14
-6 21 -17 20 -19 -1 -43 38 -43 70 0 14 11 27 33 38 l32 16 -33 0 c-30 0 -32
2 -26 28 4 15 13 32 21 39 11 8 11 13 2 18 -13 9 -29 -14 -45 -65 -15 -49 -35
-44 -56 15 -14 38 -17 66 -12 115 7 75 29 179 41 191 4 4 45 1 91 -6 92 -15
185 -10 220 11 20 13 26 11 23 -9 -1 -5 8 -5 20 -2 18 6 21 4 16 -9 -13 -34
-19 -116 -9 -128 5 -7 12 -31 15 -53 6 -47 25 -116 26 -97 1 7 6 10 11 7 6 -3
10 -26 10 -49 0 -36 3 -44 18 -42 12 1 16 -5 15 -22 -2 -15 1 -21 8 -16 16 9
29 -15 29 -56 0 -20 7 -46 16 -58 16 -23 16 -67 -1 -106 -7 -16 -5 -18 8 -13
11 4 17 1 17 -8 0 -17 26 -20 35 -5 3 5 14 10 24 10 10 0 30 10 45 21 15 12
29 19 32 16 3 -3 31 10 62 29 31 18 59 29 62 24 3 -5 14 5 25 22 11 20 20 27
23 19 3 -9 19 2 44 30 25 28 37 36 34 24 -4 -12 6 -5 25 18 19 22 35 34 38 28
4 -6 20 14 36 44 31 60 41 69 31 29 -10 -37 7 -22 29 26 19 42 35 52 36 23 0
-10 5 -3 12 16 15 44 43 57 32 15 -4 -16 -11 -45 -15 -64 -4 -19 -9 -39 -10
-45 -2 -5 1 -27 7 -47 6 -21 9 -47 6 -58 -4 -14 0 -20 11 -20 9 0 16 -8 16
-17 0 -10 7 -27 15 -37 8 -11 13 -31 10 -47 -4 -21 0 -28 15 -32 16 -4 20 -14
21 -49 1 -35 2 -39 9 -18 9 32 14 21 37 -93 7 -36 23 -45 30 -17 4 16 8 18 14
8 5 -7 9 -23 9 -35 0 -13 8 -41 17 -62 15 -35 18 -37 30 -23 11 15 12 12 13
-20 0 -20 5 -40 10 -43 6 -3 10 -1 10 5 0 6 5 8 10 5 6 -3 10 -17 10 -31 0
-14 4 -23 10 -19 6 3 13 -2 16 -12 3 -10 15 -38 26 -62 13 -27 23 -73 26 -118
l5 -73 91 93 c50 50 107 103 128 117 20 14 44 37 54 52 10 15 21 22 25 17 7
-11 29 19 48 69 8 18 16 31 18 28 3 -2 0 -14 -7 -25 -6 -12 -8 -21 -4 -21 9 0
33 31 44 57 6 14 15 20 24 17 9 -3 17 3 21 17 19 60 37 92 44 80 5 -8 11 2 15
27 4 28 12 41 26 45 14 4 20 14 20 34 0 15 9 45 20 66 11 20 20 52 20 69 1 18
7 44 15 58 8 14 14 48 15 76 0 27 5 55 12 62 8 8 8 15 1 24 -6 7 -16 38 -23
68 -7 30 -19 74 -27 97 -8 24 -12 46 -9 51 3 5 -4 25 -14 45 -26 49 -25 59 5
51 20 -5 30 0 46 19 11 15 26 24 34 21 10 -4 20 7 32 34 12 30 25 42 50 50 39
12 40 9 12 -54 -33 -74 -48 -151 -48 -244 0 -92 27 -195 51 -195 8 0 15 -17
19 -45 3 -25 7 -39 7 -32 4 26 19 10 31 -30 17 -57 42 -108 53 -108 5 0 6 5 3
10 -3 6 -1 10 5 10 7 0 17 -13 23 -30 7 -17 18 -29 26 -27 9 1 24 -16 37 -42
24 -46 52 -80 41 -49 -4 10 19 -7 49 -38 40 -40 60 -53 74 -49 10 3 21 1 25
-5 3 -6 23 -19 43 -30 20 -11 47 -27 60 -36 21 -16 22 -16 16 1 -8 20 -1 17
48 -18 14 -11 38 -19 53 -19 15 0 39 -6 53 -13 13 -8 30 -11 37 -9 6 3 17 -2
24 -10 7 -8 19 -12 27 -9 8 3 20 0 28 -6 7 -6 20 -9 29 -5 8 3 18 1 21 -5 4
-6 13 -8 20 -5 7 3 20 -2 29 -10 11 -12 17 -13 20 -3 3 9 12 8 35 -5 21 -11
32 -13 35 -5 4 12 20 6 55 -19 21 -16 22 -16 16 0 -6 14 -2 16 22 10 43 -10
130 -50 138 -63 4 -6 12 -11 17 -11 6 0 8 4 4 9 -6 11 13 103 23 111 9 6 32
115 32 148 0 12 6 22 13 22 9 0 12 28 12 105 0 83 3 105 14 105 10 0 12 9 8
34 -3 18 -1 38 5 44 7 7 6 17 -2 32 -6 12 -9 32 -6 45 3 13 1 35 -6 50 -8 17
-8 29 -1 36 7 7 2 25 -14 56 -14 29 -20 50 -14 57 6 7 3 20 -9 36 -11 14 -20
32 -20 41 0 8 -11 26 -25 39 -14 13 -24 29 -21 36 3 7 -9 24 -25 38 -29 26
-37 46 -19 46 21 0 9 19 -26 41 -26 15 -34 27 -31 40 3 12 0 19 -8 19 -21 0
-77 51 -71 65 3 8 -8 18 -25 25 -30 13 -39 29 -16 31 6 0 -6 7 -28 15 -22 8
-60 24 -85 36 -39 19 -42 23 -22 26 23 3 99 -10 137 -24 18 -7 18 -6 6 9 -12
15 -6 16 85 12 66 -4 92 -2 79 4 -16 8 -9 10 31 10 28 1 66 4 83 7 29 6 30 8
14 20 -17 12 -16 14 7 15 14 1 33 1 43 1 11 -1 31 7 47 18 15 11 32 20 37 20
5 0 45 15 89 34 81 34 115 44 264 76 47 10 80 18 74 19 -17 2 -114 91 -114
105 0 6 -11 28 -25 49 -14 20 -24 41 -21 46 3 4 -6 19 -20 32 -13 12 -22 29
-20 36 3 7 2 13 -2 13 -4 0 -16 7 -27 16 -17 12 -18 16 -5 24 11 7 8 11 -13
21 -15 7 -27 20 -27 30 0 10 -11 26 -25 37 -14 11 -25 25 -25 31 0 6 -13 24
-30 39 -16 16 -30 36 -30 45 0 9 -12 18 -30 22 -31 7 -39 20 -17 28 6 2 -3 11
-20 21 -18 9 -33 21 -33 26 0 14 -69 80 -83 80 -6 0 -21 10 -32 23 -30 33 -94
64 -148 72 -52 8 -66 19 -41 33 12 6 -2 11 -48 14 -37 3 -76 13 -92 23 -23 15
-40 17 -114 11 -142 -11 -273 -59 -373 -138 -20 -15 -39 -28 -42 -28 -12 0 15
94 57 195 47 111 48 142 6 195 -17 21 -30 46 -30 55 0 9 -12 38 -27 64 -29 52
-26 81 7 81 11 0 29 5 39 12 18 11 18 13 -6 52 -14 23 -35 52 -47 65 -11 13
-15 21 -8 17 7 -4 39 -39 72 -77 33 -38 60 -65 60 -59 0 18 -42 134 -67 183
-17 35 -22 57 -18 78 8 36 -9 90 -35 114 -28 26 -25 42 13 65 41 26 176 77
212 82 l28 3 3 -70 c3 -91 24 -141 69 -162 19 -9 35 -20 35 -24 0 -14 68 -79
83 -79 8 0 17 9 20 20 3 11 9 20 14 19 4 0 35 -37 68 -82 69 -93 95 -111 65
-46 -20 46 -19 59 3 41 11 -9 18 -3 36 28 12 22 26 40 30 40 4 0 18 -19 31
-42 63 -114 99 -157 153 -180 28 -13 57 -21 62 -19 17 6 59 5 83 -3 19 -6 22
-4 22 19 0 14 -12 43 -27 62 -27 35 -27 36 -6 31 27 -7 22 11 -16 62 -15 21
-24 45 -23 61 2 19 -5 33 -29 53 -30 26 -31 28 -13 41 18 14 17 17 -23 55 -24
22 -56 43 -73 47 -21 4 -28 9 -21 17 13 15 3 30 -35 49 -17 9 -36 22 -43 31
-7 8 -26 18 -42 21 -16 4 -27 11 -24 16 3 5 -17 23 -45 40 -50 31 -57 42 -41
67 5 8 3 29 -5 50 l-12 37 -61 0 -61 0 -87 -87 c-85 -84 -91 -88 -183 -118
-61 -20 -141 -58 -223 -106 -125 -73 -157 -83 -157 -48 0 10 -11 32 -24 49
l-25 32 38 12 c21 6 65 11 97 11 66 0 90 10 81 34 -5 12 0 16 17 16 44 0 139
37 131 51 -3 4 5 11 17 15 36 11 83 46 157 116 37 36 79 73 92 81 31 21 169
153 169 163 0 4 14 29 30 56 17 26 30 52 30 57 0 17 56 128 71 141 3 3 12 18
20 35 15 32 104 91 148 98 19 3 17 4 -12 6 -40 1 -162 32 -224 56 -21 8 -67
21 -103 30 -70 17 -101 27 -169 57 -40 18 -65 19 -111 7 -8 -2 -17 -6 -20 -9
-3 -3 -27 -19 -55 -35 -27 -15 -83 -54 -124 -87 -40 -32 -81 -58 -91 -58 -10
0 -31 -3 -47 -6 -22 -4 -37 0 -60 20 -20 17 -37 24 -48 20 -14 -6 -16 -3 -10
17 4 13 19 40 32 59 28 42 15 50 -43 25 -20 -8 -39 -13 -42 -10 -3 3 -1 5 3 5
5 0 0 7 -11 15 -12 9 -31 12 -52 9 -28 -6 -31 -4 -25 12 3 11 13 29 21 41 14
22 13 23 -19 17 -138 -22 -235 -73 -329 -171 -41 -44 -96 -107 -123 -141 -44
-58 -92 -100 -102 -91 -2 3 11 36 30 75 19 39 44 110 56 158 21 81 21 87 5 99
-16 12 -58 170 -60 230 -1 28 -16 39 -16 12 0 -8 -4 -15 -10 -15 -5 0 -10 9
-10 20 0 11 -9 29 -20 40 -11 11 -20 29 -20 40 0 11 -4 20 -10 20 -5 0 -7 8
-4 18 5 14 4 14 -5 2 -12 -17 -14 -16 -56 50 -18 28 -36 47 -40 41 -8 -14 -35
-14 -35 0 0 6 -9 22 -20 36 -15 20 -17 28 -8 43 7 10 17 16 23 12 5 -3 4 2 -4
11 -20 25 -6 47 31 47 24 1 42 10 68 35 19 20 39 34 44 32 14 -5 24 -43 25
-100 3 -136 131 -246 312 -266 95 -11 113 -7 99 19 -7 13 -4 22 10 35 18 16
22 16 77 -3 38 -14 80 -20 123 -19 36 1 82 -2 103 -6 l38 -8 -7 88 c-4 48 -10
93 -15 99 -5 6 -6 13 -3 16 3 4 -3 21 -13 40 -10 18 -18 38 -18 43 -1 18 -55
96 -71 102 -8 3 -13 12 -10 20 3 8 -2 17 -12 20 -9 4 -31 17 -48 30 -18 13
-54 32 -80 41 -66 23 -76 31 -69 52 6 19 1 21 -92 35 l-43 7 32 45 c41 56 65
69 153 78 39 4 81 9 95 11 55 6 85 20 88 42 3 19 -1 22 -36 22 -42 0 -102 17
-102 29 0 4 7 30 15 56 16 54 13 65 -15 65 -24 0 -40 29 -40 72 0 19 -11 49
-25 70 -15 22 -25 51 -25 72 0 30 -6 39 -42 63 -60 40 -58 49 13 45 49 -3 70
1 105 19 48 24 53 36 10 19 -30 -11 -115 -14 -140 -4 -25 9 -19 48 12 76 15
15 58 49 96 77 66 48 126 118 126 148 0 19 10 16 53 -12 20 -14 37 -23 37 -19
0 3 7 1 15 -6 8 -7 15 -8 15 -4 0 11 235 10 270 0 14 -5 37 -20 53 -34 23 -22
27 -23 27 -8 0 19 -11 32 -47 57 -22 15 -22 15 21 50 40 31 126 139 111 139
-4 0 -21 -11 -38 -24 -58 -44 -131 -73 -214 -86 -100 -15 -120 -6 -61 27 61
35 106 80 135 138 14 28 30 56 36 63 6 8 12 21 13 30 1 10 7 46 12 82 13 86 8
467 -7 503 -6 16 -11 46 -11 67 0 67 -23 180 -37 180 -6 0 -58 -35 -115 -77z
m102 -581 c0 -12 -29 -52 -87 -119 -60 -69 -163 -143 -199 -143 -30 0 -30 1 0
49 27 42 73 80 159 131 32 19 70 47 84 62 26 28 43 35 43 20z m-2598 -974 c20
-35 59 -94 87 -132 75 -101 163 -287 169 -356 5 -63 5 -63 -46 16 -65 100
-158 192 -233 230 -78 39 -124 76 -164 134 -32 47 -29 60 7 27 58 -54 117 -96
168 -122 30 -15 68 -36 83 -47 16 -11 30 -18 33 -15 3 3 -15 37 -40 75 -51 81
-92 158 -112 214 -21 62 6 48 48 -24z m1163 -610 c19 -9 24 -16 19 -32 -4 -12
-11 -22 -15 -24 -5 -2 -9 -8 -9 -13 0 -28 -42 -99 -58 -99 -28 0 -93 -48 -137
-101 -43 -51 -83 -84 -92 -75 -3 3 8 21 25 40 16 19 45 56 63 83 18 26 58 76
90 110 32 34 60 75 64 92 7 34 12 36 50 19z m-3175 -787 c17 -5 26 -15 28 -33
4 -33 -29 -57 -86 -65 -33 -4 -44 -1 -72 24 -25 22 -31 34 -26 50 4 12 15 24
24 26 26 7 104 6 132 -2z m2580 -94 c0 -6 -4 -27 -9 -44 -6 -21 -6 -35 0 -39
5 -3 -8 -25 -29 -49 -22 -25 -56 -78 -77 -120 -21 -41 -42 -75 -46 -75 -5 0
-16 12 -25 26 -16 23 -83 75 -128 99 -36 19 -28 32 24 39 31 4 53 13 57 22 3
8 26 26 52 39 25 14 73 45 106 69 65 48 75 53 75 33z m0 -217 c0 -25 23 -72
44 -89 8 -7 22 -34 31 -61 9 -26 23 -51 33 -55 12 -4 3 -13 -36 -36 -29 -16
-56 -37 -59 -44 -8 -21 -33 -18 -33 3 0 10 6 24 13 31 6 7 -7 2 -30 -13 -24
-14 -48 -26 -55 -26 -10 0 -10 -2 0 -9 11 -6 8 -16 -11 -45 l-25 -36 5 38 c3
23 -3 61 -16 101 l-21 63 33 45 c17 25 38 55 46 67 60 88 81 105 81 66z m785
-420 c-3 -6 1 -7 9 -4 9 3 16 1 16 -5 0 -13 -38 -34 -50 -26 -5 3 -11 1 -15
-5 -3 -5 -22 -10 -41 -10 -21 0 -42 -8 -55 -21 -16 -16 -23 -18 -29 -9 -6 9
-13 7 -29 -9 -11 -11 -26 -21 -31 -21 -6 0 -13 -7 -16 -15 -4 -8 -12 -15 -19
-15 -7 0 -15 -4 -17 -8 -4 -13 -58 -24 -58 -13 0 19 92 117 126 134 59 30 224
52 209 27z m-3008 -169 c-7 -68 -41 -175 -70 -215 -34 -48 -117 -79 -237 -87
-124 -9 -170 4 -59 17 41 5 87 8 103 6 21 -2 36 4 50 21 12 12 42 35 67 49 74
43 105 78 123 140 9 31 16 59 16 62 0 10 -48 7 -55 -4 -8 -13 -55 -13 -55 1 0
6 8 8 19 4 14 -4 28 4 52 34 17 22 36 38 42 34 5 -3 7 -30 4 -62z m2481 -102
c-6 -16 -12 -28 -14 -26 -5 5 -85 -67 -180 -161 -74 -73 -94 -81 -94 -38 0 51
80 138 170 186 30 16 69 38 85 49 40 28 46 26 33 -10z m-3172 -205 c29 -8 42
-99 18 -125 -9 -10 -21 -16 -28 -13 -8 3 -12 -9 -13 -35 -2 -35 1 -41 27 -50
18 -6 34 -22 43 -43 20 -46 46 -66 105 -80 48 -12 65 -29 43 -42 -10 -7 -178
22 -201 33 -8 5 -21 28 -27 52 -9 29 -23 51 -43 64 -38 26 -64 87 -55 134 9
50 22 69 58 91 35 21 41 23 73 14z m1214 -618 c150 -12 189 -19 274 -48 l98
-33 -148 -3 c-82 -2 -198 1 -259 8 -202 21 -280 30 -301 36 -18 5 -30 -5 -65
-51 -23 -31 -48 -54 -55 -51 -6 2 -20 -4 -30 -15 -9 -10 -21 -19 -26 -19 -5 0
22 30 61 68 38 37 71 73 73 80 4 17 96 40 158 41 25 0 124 -6 220 -13z m4385
-418 c144 4 167 -2 158 -39 -8 -28 -37 -45 -115 -64 -49 -13 -75 -15 -95 -8
-20 7 -43 6 -78 -3 -65 -17 -60 -18 -90 12 -19 19 -23 29 -16 42 14 27 49 55
59 48 5 -3 16 1 23 10 7 9 15 12 16 8 2 -5 64 -7 138 -6z m-742 -584 c23 -15
58 -40 78 -55 38 -30 55 -37 44 -19 -11 17 5 11 40 -16 19 -14 39 -23 44 -20
11 7 91 -15 91 -25 0 -3 -53 -9 -117 -13 -64 -4 -138 -12 -165 -17 -53 -12
-148 -57 -190 -91 -15 -12 -31 -18 -35 -14 -12 11 24 61 44 61 15 0 20 13 28
86 10 90 24 119 56 119 11 0 19 7 19 15 0 21 14 19 63 -11z m-3475 -44 c28 0
42 -4 42 -13 0 -8 11 -24 25 -37 18 -17 24 -33 23 -59 -2 -81 13 -144 43 -172
29 -27 38 -49 20 -49 -5 0 -13 -15 -16 -32 -10 -47 -15 -51 -36 -32 -11 9 -22
14 -26 11 -3 -4 6 -16 21 -28 14 -11 33 -34 41 -49 13 -26 13 -30 0 -38 -13
-7 -12 -12 10 -32 41 -39 33 -49 -37 -44 -103 7 -200 26 -241 47 -59 31 -137
136 -137 186 0 20 -17 52 -55 102 -30 40 -55 75 -55 78 1 12 56 85 67 88 6 2
21 -5 32 -16 23 -23 46 -27 56 -10 10 15 52 -27 81 -81 21 -41 23 -42 24 -18
0 15 -7 53 -15 84 -8 32 -13 59 -11 62 15 14 119 -97 139 -148 3 -8 6 1 6 21
1 41 -20 88 -61 139 -34 42 -35 54 -5 46 12 -3 41 -6 65 -6z m-469 -262 c29
-35 94 -115 146 -178 52 -63 95 -118 95 -122 0 -14 -40 -9 -65 8 -22 14 -25
14 -45 -6 -17 -17 -29 -21 -53 -16 -65 13 -107 87 -105 182 1 33 -4 70 -11 83
-9 16 -10 26 -2 30 7 4 3 17 -9 36 -11 17 -20 33 -20 38 0 20 23 1 69 -55z
m737 -101 c11 -7 39 -33 63 -59 23 -26 81 -74 129 -107 103 -70 182 -150 245
-246 26 -38 60 -89 77 -112 35 -49 35 -52 14 -68 -14 -10 -6 -17 54 -53 87
-52 151 -122 110 -122 -7 0 -38 14 -68 31 -30 17 -85 46 -121 65 -48 24 -82
51 -120 95 -113 130 -186 203 -244 242 -101 68 -159 122 -199 187 -32 51 -37
68 -33 97 10 60 44 79 93 50z m399 -2 c22 -8 50 -15 62 -15 12 0 31 -12 42
-26 18 -22 21 -41 21 -114 0 -111 -13 -120 -68 -47 -21 29 -47 67 -57 86 -9
19 -39 56 -66 83 l-48 48 37 0 c20 -1 55 -7 77 -15z m-1150 -225 c41 -19 41
-20 25 -30 -12 -8 -9 -10 10 -10 52 -1 56 -16 10 -47 -23 -15 -64 -48 -91 -72
-27 -24 -52 -41 -56 -38 -3 4 0 26 7 49 7 24 14 48 15 54 2 7 22 20 44 30 43
19 45 34 5 34 -17 0 -24 6 -24 18 0 20 10 34 19 29 3 -1 20 -9 36 -17z m659
-85 c20 -14 46 -25 57 -25 64 0 220 -114 254 -186 38 -80 27 -101 -42 -82 -92
25 -232 130 -219 164 3 9 -1 14 -13 14 -10 0 -29 8 -42 19 -22 17 -22 19 -6
35 27 27 20 32 -8 6 -24 -22 -25 -22 -52 -5 -88 56 -95 85 -19 85 40 0 62 -6
90 -25z"/>
<path d="M1895 7889 c-22 -25 -67 -68 -99 -95 -94 -78 -206 -198 -206 -220 0
-7 -6 -14 -13 -17 -8 -3 -20 -27 -27 -54 -7 -26 -18 -53 -25 -58 -9 -7 -12
-44 -10 -125 1 -102 5 -121 28 -166 30 -60 126 -157 177 -179 79 -36 156 -78
168 -94 12 -15 14 -14 30 6 9 12 52 41 95 63 141 73 211 148 237 255 11 46 11
58 1 65 -10 5 -12 28 -9 79 3 53 0 71 -9 71 -7 0 -13 9 -13 21 0 11 -6 33 -14
47 -8 15 -20 46 -26 69 -7 23 -18 41 -23 40 -6 -1 -13 7 -15 18 -2 11 -18 36
-36 55 -94 103 -162 202 -168 241 -3 23 -5 22 -43 -22z"/>
<path d="M1670 6762 c14 -29 8 -37 -18 -23 -27 14 -32 14 -26 -3 3 -8 1 -17
-5 -21 -6 -3 -11 -2 -11 3 0 5 -13 9 -28 9 -28 0 -28 -2 -22 -39 7 -37 7 -38
-19 -32 -25 5 -25 4 9 -26 19 -17 29 -28 21 -24 -11 5 -13 3 -8 -10 4 -10 0
-31 -10 -48 -17 -28 -17 -30 1 -44 11 -8 39 -14 63 -14 35 0 50 6 82 35 44 40
47 41 69 17 10 -10 13 -12 8 -5 -5 7 -8 46 -7 86 2 67 -1 75 -27 105 -16 18
-35 32 -43 32 -8 0 -21 6 -28 13 -11 10 -11 8 -1 -11z"/>
<path d="M1637 4784 c-4 -4 -7 -16 -7 -26 0 -16 -3 -17 -20 -8 -29 16 -37 6
-45 -50 -7 -54 -11 -59 -29 -34 -15 20 -67 8 -73 -17 -6 -22 -7 -22 -31 -10
-9 4 -46 16 -82 26 -36 9 -103 27 -150 40 -157 44 -175 26 -22 -21 97 -30 105
-40 14 -17 -35 9 -65 13 -68 10 -9 -8 24 -64 41 -71 9 -3 40 -6 69 -6 29 0 61
-6 71 -14 18 -13 18 -15 3 -38 -16 -24 -16 -26 7 -38 13 -7 31 -10 41 -6 10 4
25 -1 36 -11 14 -12 34 -17 64 -16 24 1 44 -2 44 -7 0 -5 -17 -22 -37 -39 -43
-36 -39 -46 11 -32 79 21 149 -17 110 -60 -16 -18 -16 -19 2 -19 11 0 24 -4
30 -10 16 -16 90 10 135 48 l42 36 33 -39 c19 -22 44 -60 57 -85 24 -47 55
-62 83 -40 17 15 18 30 3 30 -13 0 -159 154 -177 186 -7 13 -17 46 -22 72 -14
75 -117 281 -133 266z"/>
<path d="M684 2900 c3 -19 9 -59 12 -89 14 -130 81 -258 155 -296 37 -20 151
-20 188 0 22 11 32 26 41 65 31 130 -30 223 -185 281 -11 4 -56 19 -100 33
-44 13 -89 28 -99 32 -17 7 -18 4 -12 -26z"/>
</g>
</svg>
